<svg xmlns="http://www.w3.org/2000/svg" viewBox="0 0 50 50"><title>E901-50x50</title><path d="M40 50a38.66 38.66 0 0 0-3.15-15.53 40.62 40.62 0 0 0-8.59-12.72 40.62 40.62 0 0 0-12.72-8.59 38.66 38.66 0 0 0-15.54-3.16v-10a48 48 0 0 1 19.38 4 51.1 51.1 0 0 1 15.9 10.72 51.1 51.1 0 0 1 10.72 15.9 48 48 0 0 1 4 19.38zm-33.16-13.72a6.67 6.67 0 0 1 4.86 2 6.84 6.84 0 0 1 0 9.72 6.67 6.67 0 0 1-4.86 2 6.59 6.59 0 0 1-4.84-2 6.59 6.59 0 0 1-2-4.83 6.67 6.67 0 0 1 2-4.86 6.55 6.55 0 0 1 4.84-2.03zm26.31 13.72h-9.71a22.44 22.44 0 0 0-1.86-9.08 24 24 0 0 0-5.05-7.45 24 24 0 0 0-7.45-5.05 22.44 22.44 0 0 0-9.08-1.86v-9.71a31.76 31.76 0 0 1 12.87 2.64 34 34 0 0 1 10.52 7.13 34 34 0 0 1 7.13 10.52 31.76 31.76 0 0 1 2.63 12.86z"/></svg>