<svg xmlns="http://www.w3.org/2000/svg" viewBox="0 0 41.83 50"><title>E902-50x50</title><path d="M35.42 23.7h-1a5.57 5.57 0 0 0-.93.12 6.36 6.36 0 0 1 .69-2.06 2 2 0 0 1 2.06-1 2.1 2.1 0 0 1 2.13 1.32 7.17 7.17 0 0 1 .42 2.3 8.87 8.87 0 0 0-1.57-.49 11 11 0 0 0-1.81-.24zm9.5-15a4.08 4.08 0 0 0-1-2.3 4.51 4.51 0 0 0-1.57-1.08 20.92 20.92 0 0 0-2.57-.61q-1.69-.32-3.94-.56a26.69 26.69 0 0 0-3.67-.24h-3.18a4.13 4.13 0 0 0-.81-1.91 3.5 3.5 0 0 0-1.47-1.16 12.25 12.25 0 0 0-4.9-.84 18 18 0 0 0-3.62.3 6.2 6.2 0 0 0-1.37.59 3.65 3.65 0 0 0-1.13 1 5 5 0 0 0-.44.93 3.73 3.73 0 0 0-.2 1.27v5.14a1.76 1.76 0 0 1-.56 1.32 1.88 1.88 0 0 1-1.35.54h-4.6a6.51 6.51 0 0 0-1.32.12 5.1 5.1 0 0 0-1 .32 3.14 3.14 0 0 0-.76.47 3.35 3.35 0 0 0-.56.61 2.94 2.94 0 0 0-.64 1.35 8.36 8.36 0 0 0-.15 1.59v.64q0 .64.2 1.91 0 .44.32 2.18t.69 3.82q.42 2.08.91 4.09a16.6 16.6 0 0 0 1 3 7.17 7.17 0 0 0 .77 1.21 3.33 3.33 0 0 0 1.1.76 28 28 0 0 0 4.9 1.41q3.18.69 5 .93t3 .37q1.18.12 1.86-1.3a2.46 2.46 0 0 1 .1-.37q.1-.32.29-.81a15.81 15.81 0 0 0 .75-3.39q.15-1.54.15-2.72 0-.1.12-.1t.12.1q0 .78.24 3a3.38 3.38 0 0 0 2.4 3 14.25 14.25 0 0 0 2.47.54l3.45.49a4.28 4.28 0 0 1 2.69 1.35q1.08 1.15 1.08 5.36 0 2.55-.83 3.18t-3.62.64a14.86 14.86 0 0 1-3.26-.24q-1-.24-1-2.06 0-1.47 1.15-1.62a17.6 17.6 0 0 1 2.23-.15q.44 0 .29-.39a4 4 0 0 1-.15-1.27 3 3 0 0 1 .27-1.42q.27-.49-.22-.49a14.38 14.38 0 0 0-5.78.69q-2.06.83-2.06 5.44 0 4.16 1.93 5.41t7.33 1.26a14.06 14.06 0 0 0 6-1q1.93-1 3.65-6.22.29-1.08 1-4.26a74.63 74.63 0 0 0 1.18-8.47q.15-1.71.1-4.8t-.22-6.37q-.17-3.28-.42-6.17t-.49-4.16zm-36.72.9h4.75a.5.5 0 0 0 .49-.49v-5.18a5.55 5.55 0 0 1 .15-1.3 5.14 5.14 0 0 1 .39-1.1l.15-.34-9.13 9.19.49-.24a7.12 7.12 0 0 1 1.21-.34 7.88 7.88 0 0 1 1.6-.15z" transform="translate(-4.08)"/></svg>