<svg xmlns="http://www.w3.org/2000/svg" viewBox="0 0 55.96 50"><title>E903-50x50</title><path d="M40.89 21l-13.18 12.59a3.32 3.32 0 0 1-1.23.79 4.09 4.09 0 0 1-1.39.25 4.32 4.32 0 0 1-1.42-.25 3.28 3.28 0 0 1-1.26-.79l-13.19-12.59a3.65 3.65 0 0 1-1.22-2.73 3.88 3.88 0 0 1 3.75-3.94 3.64 3.64 0 0 1 2.74 1l10.59 10.16 10.5-10.12a3.64 3.64 0 0 1 2.74-1 4 4 0 0 1 2.74 1.15 3.76 3.76 0 0 1 1.07 2.76 3.68 3.68 0 0 1-1.18 2.72zm11.87-17.66a5 5 0 0 0-1.86-2.41 4.9 4.9 0 0 0-2.9-.93h-45.89a5 5 0 0 0-2.9.9 4.88 4.88 0 0 0-1.86 2.38 5.24 5.24 0 0 0-.25.88 5 5 0 0 0-.1.93v16.91l.16 3.34a28.15 28.15 0 0 0 1.2 5.53 26.55 26.55 0 0 0 2.3 5.07 27.14 27.14 0 0 0 3.28 4.51 30.08 30.08 0 0 0 4.18 3.86.73.73 0 0 1 .19.14l.14.14.05.05a29.11 29.11 0 0 0 5.25 3 27.71 27.71 0 0 0 5.74 1.81q1.37.27 2.76.41t2.82.14q1.26 0 2.54-.11t2.6-.33l.3-.11a.8.8 0 0 1 .3-.05.11.11 0 0 0 .08 0 .11.11 0 0 1 .08 0 30.4 30.4 0 0 0 5.5-1.83 26 26 0 0 0 5-2.93l.11-.05.27-.22a29.19 29.19 0 0 0 4.18-3.88 28.13 28.13 0 0 0 3.28-4.54 26.82 26.82 0 0 0 2.27-5.06 27.58 27.58 0 0 0 1.2-5.55l.22-3.4v-16.94a7.05 7.05 0 0 0-.05-.88 3 3 0 0 0-.22-.82z" transform="translate(2.98)"/></svg>