<svg xmlns="http://www.w3.org/2000/svg" viewBox="0 0 78.53 50"><title>E904-50x50</title><path d="M10.74 21.4v8.6h14.18q-.46 2.76-3.6 6.79t-10.58 4a14.44 14.44 0 0 1-6-1.27 16.46 16.46 0 0 1-4.93-3.36 15.87 15.87 0 0 1 0-22.32 16.46 16.46 0 0 1 4.91-3.37 14.44 14.44 0 0 1 6-1.27 13.36 13.36 0 0 1 6.1 1.27 15.19 15.19 0 0 1 3.87 2.65l6.75-6.6a25 25 0 0 0-7.44-4.76 23.82 23.82 0 0 0-9.26-1.76 24.28 24.28 0 0 0-9.74 2 25.17 25.17 0 0 0-13.31 13.3 24.37 24.37 0 0 0-2 9.7 24.37 24.37 0 0 0 2 9.7 25.17 25.17 0 0 0 13.31 13.3 24.28 24.28 0 0 0 9.74 2 25.91 25.91 0 0 0 9.82-1.8 21.74 21.74 0 0 0 7.59-5.06 22.8 22.8 0 0 0 4.85-7.75 27.23 27.23 0 0 0 1.73-9.85 17.11 17.11 0 0 0-.46-4.14zm53.53 0h-7.14v-7.14h-7.13v7.14h-7.13v7.2h7.13v7.13h7.13v-7.13h7.13z" transform="translate(14.26)"/></svg>