<svg xmlns="http://www.w3.org/2000/svg" viewBox="0 0 61.52 50"><title>E905-50x50</title><path d="M55.64 5.94a23 23 0 0 1-3.51 1.29 25.94 25.94 0 0 1-3.75.77 12.93 12.93 0 0 0 3.42-3 12.61 12.61 0 0 0 2.2-4 27.54 27.54 0 0 1-3.87 1.86 24.36 24.36 0 0 1-4.21 1.14 12.13 12.13 0 0 0-4.08-2.94 12.65 12.65 0 0 0-10-.09 12.65 12.65 0 0 0-6.69 6.72 12.29 12.29 0 0 0-1 4.89 12.1 12.1 0 0 0 .09 1.5q.09.72.21 1.38a35.54 35.54 0 0 1-7.59-1.17 34.68 34.68 0 0 1-7-2.7 36.16 36.16 0 0 1-6.2-4.03 35.79 35.79 0 0 1-5.22-5.22 13.31 13.31 0 0 0-1.23 3 12.5 12.5 0 0 0-.45 3.36 12.29 12.29 0 0 0 1.53 6.06 12.56 12.56 0 0 0 4.05 4.44 12.38 12.38 0 0 1-3-.48 14.64 14.64 0 0 1-2.7-1.08v.12a12.17 12.17 0 0 0 2.91 8 12.24 12.24 0 0 0 7.23 4.32 12.88 12.88 0 0 1-1.65.36 11.67 11.67 0 0 1-1.71.12 11.18 11.18 0 0 1-1.17-.06q-.57-.06-1.17-.18a12.41 12.41 0 0 0 4.44 6.18 12.51 12.51 0 0 0 7.38 2.58 26.16 26.16 0 0 1-7.23 4 24.65 24.65 0 0 1-8.43 1.44q-.72 0-1.47-.06l-1.53-.12a38.43 38.43 0 0 0 4.38 2.37 34.46 34.46 0 0 0 4.74 1.79 38.59 38.59 0 0 0 5 1.11 34.7 34.7 0 0 0 5.25.39 34.64 34.64 0 0 0 15.39-3.27 35.77 35.77 0 0 0 11.28-8.43 36.09 36.09 0 0 0 6.9-11.52 36.32 36.32 0 0 0 2.34-12.61v-.81a5.73 5.73 0 0 0-.06-.81 24.37 24.37 0 0 0 3.45-3 24.54 24.54 0 0 0 2.85-3.55z" transform="translate(5.76)"/></svg>