<svg xmlns="http://www.w3.org/2000/svg" viewBox="0 0 52.44 50"><title>E906-50x50</title><path d="M41.08 20.28a1.38 1.38 0 0 1 0 2.77h-3.84v2.45h3.84a1.38 1.38 0 0 1 0 2.77h-5.22a1.25 1.25 0 0 1-.95-.41 1.37 1.37 0 0 1-.38-1v-10.37a1.37 1.37 0 0 1 .38-1 1.31 1.31 0 0 1 1-.41h5.17a1.4 1.4 0 0 1 1.38 1.38 1.25 1.25 0 0 1-.41.95 1.37 1.37 0 0 1-1 .38h-3.81v2.46zm-8.4 6.61a1.37 1.37 0 0 1-.26.82 1.39 1.39 0 0 1-.72.51h-.4a1.31 1.31 0 0 1-.64-.15 1.6 1.6 0 0 1-.49-.41l-5.33-7.22v6.4a1.38 1.38 0 0 1-2.77 0v-10.35a1.37 1.37 0 0 1 .26-.82 1.39 1.39 0 0 1 .72-.51.25.25 0 0 1 .18-.05h.23a1.21 1.21 0 0 1 .59.15 1.6 1.6 0 0 1 .49.41l5.38 7.27v-6.45a1.38 1.38 0 0 1 2.77 0zm-12.55 0a1.38 1.38 0 0 1-2.77 0v-10.4a1.38 1.38 0 0 1 2.77 0zm-5.38 1.38h-5.22a1.4 1.4 0 0 1-1.38-1.38v-10.4a1.38 1.38 0 0 1 2.36-1 1.33 1.33 0 0 1 .41 1v9h3.84a1.25 1.25 0 0 1 .95.41 1.42 1.42 0 0 1 0 1.95 1.25 1.25 0 0 1-.95.42zm36.46-7a17.38 17.38 0 0 0-2.06-8.27 21.77 21.77 0 0 0-5.63-6.76 28.12 28.12 0 0 0-8.32-4.56 30.25 30.25 0 0 0-10.2-1.68 30.25 30.25 0 0 0-10.19 1.69 28.12 28.12 0 0 0-8.32 4.56 21.77 21.77 0 0 0-5.64 6.75 17.63 17.63 0 0 0-.41 15.78 21.19 21.19 0 0 0 4.56 6.32 25.49 25.49 0 0 0 7 4.66 30.81 30.81 0 0 0 8.7 2.54 5.73 5.73 0 0 1 1.38.41 1.55 1.55 0 0 1 .92.87 2.6 2.6 0 0 1 .18 1.15q0 .69-.08 1.2l-.36 2.2a4.38 4.38 0 0 0 0 1.41q.13.9 2.28 0 1-.46 3.61-2t5.68-3.69q3.1-2.15 6.17-4.66a39.61 39.61 0 0 0 5.12-4.92 22.53 22.53 0 0 0 4.2-6.3 16.86 16.86 0 0 0 1.42-6.67z" transform="translate(1.22)"/></svg>