<svg xmlns="http://www.w3.org/2000/svg" viewBox="0 0 50.04 50"><title>E907-50x50</title><path d="M31.37 36.06a22.34 22.34 0 0 1-5.37 2.66 19 19 0 0 1-6.13 1 19.12 19.12 0 0 1-7.7-1.57 20.1 20.1 0 0 1-10.62-10.6 19.12 19.12 0 0 1-1.55-7.7 19.12 19.12 0 0 1 1.57-7.7 20.1 20.1 0 0 1 10.56-10.58 19.12 19.12 0 0 1 7.71-1.57 19.12 19.12 0 0 1 7.7 1.57 20.1 20.1 0 0 1 10.58 10.58 19.63 19.63 0 0 1 .58 13.85 22.34 22.34 0 0 1-2.7 5.39l13 13a3.13 3.13 0 0 1 1 2.37 3.26 3.26 0 0 1-1 2.3 3.35 3.35 0 0 1-4.67 0zm-11.53-1.06a14.68 14.68 0 0 0 5.91-1.2 15.21 15.21 0 0 0 8.07-8.07 15.11 15.11 0 0 0 0-11.82 15.21 15.21 0 0 0-8.07-8.07 15.11 15.11 0 0 0-11.82 0 15.21 15.21 0 0 0-8.07 8.07 15.11 15.11 0 0 0 0 11.82 15.21 15.21 0 0 0 8.07 8.07 14.68 14.68 0 0 0 5.91 1.2z" transform="translate(.02)"/></svg>